<svg width="108" height="26" viewBox="0 0 108 26" fill="none" xmlns="http://www.w3.org/2000/svg">
<path d="M39.4381 3.95621L39.3727 5.40481H34.4138V21.8796H32.6273V5.43346H27.5621V3.95621H39.4381Z" fill="#003BB3"/>
<path d="M35.0188 22.4855H32.0222V6.01895H26.957V3.355H40.0676L39.9531 6.01076H35.0188V22.4855ZM33.2323 21.2579H33.8087V4.79951H38.7962V4.56216H28.1671V4.81178H33.2323V21.2579Z" fill="#003BB3"/>
<path d="M56.8289 21.9533H55.1201V4.08725H56.8821C60.1526 9.05232 63.4449 14.031 66.759 19.0234L66.8612 18.9947V4.08725H68.6109V21.9533H66.8612C63.5716 16.961 60.267 11.9536 56.9475 6.93125L56.8289 6.95989V21.9533Z" fill="#003BB3"/>
<path d="M69.2035 22.5548H66.5258L57.4216 8.76036V22.5548H54.5027V3.48157H57.1927L66.2315 17.1737V3.48157H69.1913L69.2035 22.5548ZM67.1595 21.3272H67.9771V4.69283H67.4579V19.4489L66.4931 19.7313L56.5427 4.69283H55.725V21.3476H56.2279V6.49335L57.2213 6.23555L67.1595 21.3272Z" fill="#003BB3"/>
<path d="M95.7477 15.5902C95.4492 17.6363 97.0845 19.8788 99.2757 20.5008C101.467 21.1228 104.386 20.5662 105.383 17.5954H107.178C106.93 18.7013 106.344 19.7025 105.502 20.4598C104.018 21.8143 102.231 22.2399 100.265 22.1294C99.2116 22.083 98.1831 21.7931 97.2603 21.2823C96.5447 20.8905 95.9138 20.3609 95.4037 19.7239C94.8936 19.0869 94.5145 18.3551 94.2882 17.5708C93.697 15.7485 93.733 13.7804 94.3904 11.981C95.2816 9.55032 97.0845 8.17947 99.6314 7.80709C101.436 7.48241 103.295 7.8823 104.807 8.92014C105.551 9.43905 106.169 10.1197 106.614 10.9113C107.058 11.7028 107.318 12.5847 107.374 13.491C107.44 14.1662 107.374 14.8496 107.374 15.5821L95.7477 15.5902ZM105.657 14.1621C105.657 12.3657 105.069 10.9253 103.544 9.9759C102.664 9.45157 101.656 9.18472 100.632 9.2057C99.609 9.22667 98.6121 9.53464 97.7549 10.0946C96.3731 11.0849 95.7804 12.4762 95.6823 14.1621H105.657Z" fill="#003BB3"/>
<path d="M100.842 22.7555C100.641 22.7555 100.433 22.7555 100.232 22.7555C99.0864 22.7022 97.9677 22.3873 96.962 21.8347C96.1764 21.4063 95.4832 20.8268 94.9219 20.1295C94.3607 19.4322 93.9425 18.6308 93.6915 17.7713C93.0593 15.8233 93.0996 13.7192 93.806 11.7968C94.7462 9.21883 96.7249 7.63929 99.5293 7.23417C101.489 6.88704 103.506 7.32822 105.142 8.4618C105.958 9.03113 106.636 9.77693 107.125 10.644C107.614 11.511 107.902 12.477 107.967 13.4705C108.003 13.9621 108.009 14.4554 107.988 14.9478C107.988 15.1646 107.988 15.3938 107.988 15.6189V16.1958H96.3201C96.3815 17.7795 97.7265 19.4286 99.4353 19.9033C101.43 20.4598 103.965 19.9033 104.811 17.3907L104.95 16.9815H107.93L107.767 17.7099C107.491 18.9406 106.841 20.0557 105.907 20.9017C104.523 22.1547 102.706 22.8196 100.842 22.7555ZM100.911 8.32676C100.512 8.32726 100.113 8.35735 99.7174 8.41678C97.3544 8.75643 95.7519 10.0291 94.9588 12.1979C94.3464 13.8709 94.3147 15.7016 94.8689 17.3948C95.0732 18.1049 95.4156 18.7676 95.8766 19.3449C96.3375 19.9221 96.9078 20.4025 97.5548 20.7585C98.398 21.2228 99.3365 21.4874 100.298 21.5319C102.289 21.6424 103.859 21.1473 105.093 20.0179C105.654 19.5162 106.09 18.8897 106.365 18.1887H105.8C105.546 18.8195 105.162 19.39 104.674 19.8635C104.187 20.3371 103.605 20.7033 102.967 20.9386C101.727 21.3798 100.38 21.4255 99.1123 21.0695C96.6227 20.378 94.8075 17.8286 95.1509 15.5043L95.2245 14.9887H106.79C106.79 14.9559 106.79 14.9232 106.79 14.8905C106.81 14.4458 106.803 14.0003 106.769 13.5564C106.719 12.7377 106.485 11.9409 106.084 11.2254C105.683 10.5098 105.127 9.89386 104.455 9.42344C103.42 8.69133 102.179 8.30731 100.911 8.32676ZM106.267 14.7677H95.0406L95.0774 14.1252C95.1959 12.1201 95.9604 10.6388 97.4035 9.62395C98.3606 8.9999 99.4728 8.65583 100.615 8.63053C101.757 8.60522 102.883 8.89968 103.867 9.48073C105.469 10.4833 106.254 12.0178 106.262 14.1784L106.267 14.7677ZM96.3528 13.5401H105.028C105.005 12.9191 104.828 12.3136 104.513 11.7779C104.199 11.2422 103.756 10.7931 103.225 10.471C102.448 10.0078 101.556 9.77148 100.652 9.78884C99.7473 9.80619 98.8657 10.0765 98.1066 10.5692C97.6193 10.9141 97.2109 11.3589 96.9086 11.8739C96.6062 12.3889 96.4167 12.9625 96.3528 13.5564V13.5401Z" fill="#003BB3"/>
<path d="M39.25 14.9598C39.25 12.8851 39.8305 11.0355 41.3677 9.57049C42.5633 8.43655 44.1363 7.78633 45.7828 7.74542C48.2684 7.63493 50.4024 8.40425 51.915 10.4626C52.7031 11.5531 53.1563 12.8501 53.2191 14.1946C53.3859 15.748 53.0841 17.3158 52.3524 18.6958C51.8347 19.6405 51.0939 20.4439 50.1946 21.0359C49.2953 21.628 48.2648 21.9906 47.1932 22.0923C45.8607 22.2937 44.4984 22.1179 43.2605 21.5849C40.8076 20.5046 39.5812 18.524 39.2705 15.9214C39.25 15.6882 39.25 15.459 39.25 15.2298C39.2255 15.1398 39.25 15.0498 39.25 14.9598ZM51.4653 14.8452C51.4653 14.7224 51.4408 14.5137 51.4285 14.3009C51.2609 11.4979 49.5603 9.61141 46.7844 9.26768C45.691 9.10496 44.5746 9.31202 43.6119 9.85606C42.6493 10.4001 41.8955 11.25 41.4699 12.2713C40.8923 13.702 40.7961 15.2822 41.196 16.7726C41.6702 18.659 42.8312 19.9521 44.7363 20.4554C46.7149 20.9588 48.5178 20.5618 49.9813 19.0764C51.1056 17.9347 51.4408 16.482 51.4653 14.8452Z" fill="#003BB3"/>
<path d="M46.0936 22.7635C45.0347 22.7683 43.9863 22.5523 43.0153 22.1293C40.4807 21.0203 39.0212 18.9538 38.6655 15.9911C38.6655 15.8029 38.6369 15.6188 38.6328 15.4387C38.6328 15.3814 38.6328 15.3241 38.6328 15.2668C38.6287 15.1932 38.6287 15.1195 38.6328 15.0459V14.9681C38.6328 12.5129 39.385 10.6223 40.9385 9.14098C42.2383 7.90538 43.9501 7.1967 45.7421 7.15223C48.6037 7.02128 50.8481 8.01566 52.4057 10.1108C53.2634 11.2937 53.7565 12.702 53.8243 14.162C53.9992 15.8294 53.6718 17.5111 52.884 18.9906C52.3177 20.0139 51.5111 20.8839 50.534 21.5255C49.5568 22.1671 48.4383 22.5611 47.2751 22.6735C46.8837 22.73 46.489 22.76 46.0936 22.7635ZM46.2408 8.34302C46.0896 8.34302 45.9424 8.34302 45.7911 8.34302C44.2901 8.37693 42.8551 8.96753 41.7643 10.0003C40.4643 11.2279 39.8307 12.8648 39.8307 14.9477V15.1932C39.8307 15.2546 39.8307 15.3159 39.8307 15.3773C39.8307 15.5369 39.8307 15.6883 39.8593 15.8315C40.1618 18.3768 41.3514 20.071 43.4895 21.008C44.6264 21.4953 45.8765 21.6554 47.0993 21.4704C49.266 21.1799 50.8113 20.1651 51.8129 18.3768C52.4902 17.1043 52.7654 15.6559 52.6019 14.2234C52.5513 12.9949 52.1388 11.809 51.4164 10.8146C50.1858 9.15735 48.4893 8.34302 46.2408 8.34302ZM46.3062 21.2658C45.7267 21.2635 45.1498 21.1878 44.5892 21.0408C42.5452 20.5129 41.1593 19.0929 40.6156 16.9487C40.1821 15.3308 40.2869 13.6157 40.914 12.0627C41.3885 10.9183 42.2306 9.965 43.3072 9.35355C44.3838 8.7421 45.6333 8.50746 46.8581 8.68676C49.9119 9.06732 51.8456 11.1625 52.0296 14.2847C52.0296 14.4361 52.0296 14.5916 52.0582 14.6939V14.8372V14.8454C52.0582 16.1385 51.8456 18.0208 50.423 19.4899C49.8946 20.052 49.2566 20.4996 48.5485 20.8051C47.8404 21.1105 47.0773 21.2674 46.3062 21.2658ZM46.1345 9.83664C45.2639 9.81721 44.4077 10.0616 43.6782 10.5377C42.9486 11.0138 42.3799 11.6994 42.0464 12.5047C41.5188 13.8191 41.4313 15.2693 41.797 16.6377C42.2345 18.3646 43.2769 19.453 44.904 19.8663C45.7184 20.1184 46.5871 20.1369 47.4116 19.92C48.236 19.703 48.9833 19.2591 49.5685 18.6387C50.4393 17.7507 50.844 16.5927 50.8726 14.8576V14.7676C50.8726 14.6448 50.8726 14.4853 50.844 14.3298C50.6969 11.7967 49.2088 10.1681 46.7273 9.8571C46.5303 9.83898 46.3323 9.83215 46.1345 9.83664Z" fill="#003BB3"/>
<path d="M70.8634 14.9598C70.8634 12.8851 71.4439 11.0355 72.9851 9.57049C74.1793 8.43682 75.7509 7.78656 77.3962 7.74542C79.8859 7.63493 82.0158 8.40425 83.5284 10.4626C84.3181 11.5522 84.7715 12.8497 84.8325 14.1946C84.9985 15.7475 84.6982 17.3147 83.9699 18.6959C82.8375 20.7092 81.0755 21.7854 78.8066 22.0923C77.4741 22.2934 76.1119 22.1177 74.8738 21.5849C72.421 20.5046 71.1945 18.524 70.8879 15.9214C70.8593 15.6964 70.8593 15.4672 70.847 15.238C70.8593 15.1398 70.8634 15.0498 70.8634 14.9598ZM83.0991 14.8452C83.0991 14.7224 83.0746 14.5137 83.0623 14.3009C82.8988 11.4979 81.1941 9.61141 78.4182 9.26768C77.3247 9.10423 76.208 9.31098 75.2452 9.85511C74.2824 10.3992 73.5287 11.2496 73.1037 12.2713C72.524 13.7016 72.4278 15.2824 72.8298 16.7726C73.304 18.659 74.465 19.9521 76.366 20.4555C78.3487 20.9588 80.1475 20.5618 81.6111 19.0764C82.7435 17.9347 83.0787 16.482 83.0991 14.8452Z" fill="#003BB3"/>
<path d="M77.7274 22.7635C76.6684 22.7683 75.6201 22.5523 74.6491 22.1293C72.1185 21.0203 70.655 18.9538 70.3034 15.9911C70.2789 15.8029 70.2748 15.6188 70.2666 15.4387C70.2666 15.3814 70.2666 15.3241 70.2666 15.2668C70.2666 15.2095 70.2666 15.1113 70.2666 15.0459V14.9681C70.2666 12.5129 71.0188 10.6223 72.5764 9.14098C73.8758 7.90472 75.5878 7.19592 77.3799 7.15223C80.2416 7.02128 82.486 8.01566 84.0395 10.1108C84.8967 11.2942 85.391 12.7019 85.4621 14.162C85.6351 15.8293 85.3077 17.5104 84.5219 18.9906C83.9553 20.0137 83.1487 20.8835 82.1715 21.5251C81.1944 22.1666 80.0761 22.5608 78.913 22.6735C78.5202 22.7298 78.1242 22.7599 77.7274 22.7635ZM77.8746 8.34302C77.7274 8.34302 77.5762 8.34302 77.4249 8.34302C75.9251 8.37716 74.4915 8.9678 73.4022 10.0003C72.0981 11.2279 71.4685 12.8648 71.4685 14.9477V15.0377C71.4685 15.0909 71.4685 15.14 71.4685 15.1932C71.4685 15.2464 71.4685 15.3159 71.4685 15.3773C71.4685 15.5369 71.4685 15.6883 71.493 15.8275C71.7996 18.3768 72.9852 20.071 75.1274 21.008C76.2627 21.4956 77.5116 21.6558 78.7331 21.4704C80.9039 21.1799 82.4451 20.1651 83.4508 18.3768C84.1256 17.1035 84.4006 15.6558 84.2398 14.2234C84.1891 12.9949 83.7767 11.809 83.0542 10.8146C81.8237 9.15735 80.1312 8.34302 77.8746 8.34302ZM77.94 21.2658C77.3618 21.2632 76.7863 21.1876 76.2271 21.0408C74.183 20.5129 72.7931 19.0929 72.2493 16.9487C71.8172 15.3304 71.9234 13.6152 72.5519 12.0627C73.023 10.9149 73.8638 9.95753 74.9408 9.34288C76.0178 8.72823 77.2692 8.49153 78.496 8.67039C81.5498 9.05096 83.4835 11.1461 83.6674 14.2684C83.6674 14.4157 83.6674 14.5671 83.6961 14.6776V14.829V14.8454C83.6961 16.1385 83.4876 18.0208 82.0608 19.4899C81.5317 20.0521 80.893 20.4997 80.1842 20.8052C79.4755 21.1107 78.7117 21.2674 77.94 21.2658ZM77.7683 9.83664C76.8974 9.81607 76.0407 10.06 75.311 10.5362C74.5812 11.0125 74.0127 11.6987 73.6802 12.5047C73.1485 13.8181 73.0609 15.2697 73.4308 16.6377C73.8641 18.3646 74.9107 19.453 76.5337 19.8663C77.3481 20.1184 78.2168 20.1369 79.0413 19.92C79.8657 19.703 80.6129 19.2591 81.1982 18.6387C82.0731 17.7507 82.4737 16.5927 82.5023 14.8535V14.7553C82.5023 14.6367 82.4819 14.4812 82.4737 14.3461C82.3224 11.8131 80.8385 10.1845 78.357 9.87347C78.1616 9.85029 77.9651 9.838 77.7683 9.83664Z" fill="#003BB3"/>
<path d="M87.1341 9.39885H85.1963V7.95025H87.1259V4.4556H88.8633V7.94616H92.7389V9.38657H88.9246C88.9246 9.64437 88.8879 9.84079 88.8879 10.0331C88.8879 12.6602 88.8879 15.2874 88.8879 17.9104C88.8884 18.3346 88.9281 18.7579 89.0064 19.1748C89.0468 19.4891 89.194 19.7798 89.4233 19.9981C89.6526 20.2165 89.95 20.3492 90.2656 20.3738C90.8502 20.4475 91.447 20.4434 92.0398 20.4679C92.2606 20.4679 92.4854 20.4679 92.7348 20.4679V21.8593C92.6179 21.8867 92.4989 21.9045 92.3791 21.9125C91.6964 21.9125 91.0096 21.9125 90.3351 21.9125C88.3237 21.8306 87.1831 20.6848 87.1586 18.6797C87.1218 15.8152 87.1586 12.9753 87.1381 10.1191L87.1341 9.39885Z" fill="#003BB3"/>
<path d="M91.3326 22.5262C90.9933 22.5262 90.6499 22.5262 90.3065 22.5262C87.9477 22.4321 86.5781 21.0367 86.5495 18.696C86.525 16.6909 86.525 14.653 86.5495 12.6807C86.5495 11.8295 86.5495 10.9783 86.5495 10.1272V10.0208H84.6077V7.36094H86.5373V3.84993H89.4848V7.34048H93.3603V9.99215H89.493V10.9743C89.493 13.2495 89.493 15.5983 89.493 17.9308C89.4967 18.3179 89.5336 18.704 89.6033 19.0848C89.6292 19.2669 89.7184 19.434 89.8553 19.5567C89.9921 19.6795 90.1678 19.75 90.3515 19.7559C90.7603 19.8091 91.1691 19.8173 91.5779 19.8336H92.0603C92.1952 19.8336 92.3383 19.8336 92.4936 19.8336H93.3358V22.3748L92.8289 22.4607H92.7348C92.6182 22.4884 92.499 22.5035 92.3792 22.5058H91.3326V22.5262ZM85.8014 8.79317H87.7392V12.6684C87.7392 14.6326 87.7392 16.6664 87.7392 18.6674C87.7596 20.3451 88.6304 21.2331 90.3351 21.2986C90.8502 21.2986 91.3817 21.2986 91.8927 21.2986H92.1175V21.0653H91.999H91.5288C91.0752 21.0605 90.6222 21.0319 90.1716 20.9794C89.7289 20.9398 89.3124 20.7518 88.9897 20.4458C88.667 20.1398 88.4568 19.7338 88.3933 19.2935C88.323 18.8373 88.2943 18.3758 88.3074 17.9144C88.3074 15.6024 88.3074 13.2495 88.3074 10.9579V10.0167C88.3074 9.8653 88.3074 9.71798 88.3319 9.56248C88.3319 9.49292 88.3319 9.41517 88.3319 9.33333L88.3687 8.76862H92.1421V8.53537H88.2665V5.05709H87.7351V8.55583H85.8096L85.8014 8.79317Z" fill="#003BB3"/>
<path d="M24.8476 14.3216C24.685 14.5886 24.5803 14.8869 24.5402 15.1971C24.5 15.5072 24.5254 15.8224 24.6146 16.1221C24.7399 16.5234 24.7299 16.9547 24.586 17.3497C24.4202 17.7531 24.1348 18.0959 23.7684 18.3318C23.4879 18.504 23.2554 18.7444 23.0925 19.0305C22.9295 19.3166 22.8414 19.6393 22.8363 19.9687C22.8108 20.4046 22.643 20.8202 22.3587 21.1514C22.0743 21.4826 21.6891 21.7112 21.2623 21.8019C20.9436 21.8759 20.6476 22.0262 20.3997 22.2401C20.1519 22.4539 19.9597 22.7249 19.8397 23.0295C19.653 23.4458 19.3396 23.7924 18.9444 24.0198C18.5386 24.2359 18.0757 24.3202 17.6198 24.2613C17.3574 24.2171 17.0882 24.236 16.8344 24.3164C16.5807 24.3968 16.3497 24.5364 16.1604 24.7237C15.9523 24.9518 15.7 25.1351 15.4189 25.2624C15.1377 25.3897 14.8337 25.4584 14.5251 25.4643C14.2928 25.4627 14.0618 25.4297 13.8383 25.3661C13.0492 25.1475 12.2155 25.1475 11.4263 25.3661C11.2298 25.4156 11.0281 25.4417 10.8254 25.4439C10.5177 25.442 10.2138 25.3767 9.93244 25.2521C9.6511 25.1275 9.39842 24.9462 9.19014 24.7196C9.00992 24.5317 8.78617 24.3911 8.53873 24.3105C8.29128 24.2298 8.02778 24.2115 7.77157 24.2572C7.29277 24.3185 6.80664 24.2329 6.37752 24.0116C5.96462 23.7803 5.63763 23.4214 5.44543 22.9886C5.32076 22.6955 5.12944 22.4356 4.88671 22.2296C4.64398 22.0236 4.35655 21.8771 4.0473 21.8019C3.61443 21.6991 3.22689 21.4577 2.9435 21.1144C2.66571 20.7489 2.50342 20.3085 2.47746 19.85C2.46634 19.5711 2.38987 19.2988 2.25423 19.055C2.11859 18.8112 1.92759 18.6027 1.69663 18.4464C1.28446 18.1804 0.966813 17.7909 0.789069 17.3334C0.627044 16.8662 0.61277 16.3603 0.748188 15.8848C0.824791 15.6087 0.834333 15.3184 0.776018 15.0379C0.717703 14.7574 0.593222 14.495 0.412962 14.2725C0.200423 14.0132 0.0635236 13.7003 0.0173568 13.3682C-0.0288101 13.036 0.0175492 12.6976 0.151323 12.3901C0.559844 11.4627 0.743357 10.4517 0.686866 9.43971C0.66347 9.09078 0.735155 8.74204 0.894273 8.4307C1.05339 8.11936 1.29397 7.85711 1.59034 7.67193C1.85631 7.49772 2.07675 7.26231 2.23322 6.98538C2.38969 6.70844 2.47764 6.39803 2.48972 6.0801C2.513 5.64228 2.67317 5.22285 2.94759 4.88112C3.2347 4.54461 3.62124 4.30816 4.05138 4.20592C4.36865 4.13912 4.66497 3.99623 4.91491 3.78953C5.16484 3.58283 5.36093 3.31849 5.48631 3.01922C5.64384 2.60697 5.93364 2.25872 6.31025 2.02914C6.68685 1.79955 7.12894 1.7016 7.56716 1.75067C8.36026 1.81614 8.83856 1.66883 9.2719 1.21461C9.58202 0.879393 9.98963 0.650335 10.437 0.559872C10.8895 0.486058 11.3536 0.559194 11.7616 0.768568C12.0437 0.906051 12.3533 0.977495 12.6671 0.977495C12.9808 0.977495 13.2905 0.906051 13.5726 0.768568C13.9807 0.542487 14.4551 0.466984 14.9131 0.555232C15.3711 0.643479 15.7836 0.889875 16.0786 1.25143C16.2584 1.44795 16.4823 1.59899 16.7317 1.69217C16.9811 1.78536 17.2491 1.81802 17.5135 1.7875C18.0199 1.72218 18.5338 1.81962 18.9812 2.06576C19.4156 2.33322 19.7524 2.73352 19.9419 3.20745C20.0414 3.44561 20.1972 3.65603 20.3959 3.82068C20.5945 3.98532 20.8301 4.09926 21.0825 4.15273C21.5769 4.25683 22.0253 4.51634 22.362 4.8934C22.6783 5.27633 22.8555 5.75523 22.8649 6.25197C22.9331 6.79697 23.2119 7.29352 23.6416 7.6351C23.9443 7.94497 24.218 8.28192 24.4592 8.64175L24.6187 8.86272C24.6942 8.9837 24.7408 9.12045 24.755 9.26238C24.7692 9.40431 24.7505 9.5476 24.7004 9.68114C24.5675 10.0121 24.5141 10.3697 24.5446 10.7251C24.5751 11.0806 24.6887 11.4238 24.8762 11.7272C25.114 12.1192 25.2373 12.5699 25.2322 13.0285C25.2272 13.487 25.0939 13.9349 24.8476 14.3216Z" fill="#003BB3"/>
<path d="M24.8681 11.7313C24.6806 11.428 24.567 11.0847 24.5364 10.7293C24.5059 10.3739 24.5593 10.0163 24.6923 9.6853C24.7423 9.55176 24.761 9.40847 24.7468 9.26654C24.7326 9.12461 24.686 8.98786 24.6105 8.86688L24.4511 8.64591C24.2098 8.28609 23.9361 7.94913 23.6335 7.63926C23.2059 7.29526 22.93 6.79726 22.8649 6.25204C22.8546 5.75671 22.6774 5.2794 22.3621 4.89756C22.0253 4.5205 21.5769 4.261 21.0825 4.15689C20.8302 4.10342 20.5946 3.98948 20.3959 3.82484C20.1972 3.6602 20.0414 3.44977 19.9419 3.21162C19.7524 2.73768 19.4156 2.33738 18.9812 2.06992C18.5338 1.82379 18.0199 1.72634 17.5135 1.79166C17.2491 1.82219 16.9811 1.78952 16.7317 1.69634C16.4823 1.60315 16.2584 1.45211 16.0786 1.2556C15.7841 0.893365 15.3719 0.646171 14.9138 0.557169C14.4558 0.468168 13.9811 0.543014 13.5726 0.76864C13.2905 0.906122 12.9808 0.977567 12.6671 0.977567C12.3533 0.977567 12.0437 0.906122 11.7616 0.76864C11.3536 0.559266 10.8895 0.48613 10.437 0.559943C9.9876 0.654879 9.57974 0.889805 9.27191 1.23105C8.83857 1.68527 8.36026 1.83258 7.56716 1.75074C7.12944 1.70139 6.68772 1.79874 6.31118 2.02755C5.93465 2.25636 5.64455 2.60371 5.48631 3.0152C5.36146 3.31523 5.16562 3.58039 4.91565 3.78783C4.66567 3.99527 4.36907 4.13878 4.05138 4.20599C3.62281 4.3049 3.23646 4.53694 2.94759 4.86891C2.67317 5.21064 2.513 5.63007 2.48972 6.06789C2.47764 6.38582 2.38969 6.69623 2.23322 6.97317C2.07675 7.2501 1.85631 7.48552 1.59034 7.65972C1.29397 7.8449 1.05339 8.10716 0.894273 8.41849C0.735156 8.72983 0.66347 9.07857 0.686866 9.4275C0.745312 10.4436 0.561758 11.459 0.151323 12.3902C0.0175492 12.6976 -0.0288101 13.0361 0.0173568 13.3682C0.0635236 13.7004 0.200423 14.0133 0.412963 14.2725C0.59113 14.4961 0.713385 14.7591 0.769558 15.0395C0.825732 15.3199 0.814201 15.6097 0.735924 15.8848C0.600506 16.3604 0.61478 16.8662 0.776805 17.3334C0.957778 17.7927 1.27989 18.1824 1.69663 18.4465C1.92868 18.6036 2.12036 18.8134 2.25605 19.0587C2.39174 19.304 2.4676 19.578 2.47746 19.8582C2.50342 20.3168 2.66571 20.7571 2.94351 21.1227C3.22811 21.4629 3.61551 21.7014 4.0473 21.802C4.35748 21.8728 4.64686 22.0151 4.89242 22.2175C5.13799 22.42 5.33295 22.6771 5.46178 22.9682C5.65398 23.401 5.98098 23.7599 6.39387 23.9912C6.81604 24.2163 7.29608 24.3089 7.77157 24.2572C8.02722 24.2157 8.28915 24.2377 8.53435 24.3211C8.77955 24.4046 9.00053 24.5471 9.17788 24.736C9.38616 24.9627 9.63884 25.1439 9.92018 25.2685C10.2015 25.3932 10.5055 25.4584 10.8131 25.4603C11.0158 25.4581 11.2175 25.432 11.4141 25.3826C12.2032 25.1639 13.0369 25.1639 13.8261 25.3826C14.0495 25.4461 14.2806 25.4791 14.5129 25.4808C14.8214 25.4749 15.1255 25.4062 15.4066 25.2788C15.6878 25.1515 15.94 24.9682 16.1481 24.7401C16.3367 24.5473 16.5689 24.4028 16.8251 24.3188C17.0812 24.2348 17.3538 24.2136 17.6198 24.2572C18.0757 24.3162 18.5386 24.2318 18.9444 24.0158C19.339 23.7895 19.6523 23.4444 19.8397 23.0296C19.9597 22.7249 20.1519 22.454 20.3998 22.2402C20.6476 22.0263 20.9436 21.8759 21.2623 21.802C21.6883 21.7095 22.0721 21.4796 22.3549 21.1477C22.6378 20.8158 22.804 20.4002 22.8281 19.9646C22.8332 19.6353 22.9213 19.3126 23.0843 19.0265C23.2472 18.7403 23.4797 18.5 23.7602 18.3278C24.1267 18.0918 24.412 17.7491 24.5778 17.3457C24.7217 16.9507 24.7318 16.5193 24.6064 16.1181C24.5172 15.8183 24.4919 15.5032 24.532 15.193C24.5721 14.8829 24.6769 14.5846 24.8394 14.3175C25.0842 13.9318 25.2165 13.4854 25.2215 13.0285C25.2266 12.5716 25.1042 12.1224 24.8681 11.7313ZM24.492 14.1252C24.3026 14.4398 24.1812 14.7905 24.1354 15.1549C24.0896 15.5192 24.1206 15.8892 24.2262 16.2408C24.3329 16.569 24.3228 16.924 24.1976 17.2455C24.0724 17.567 23.8398 17.8352 23.5394 18.0045C23.2087 18.2133 22.9348 18.5008 22.7422 18.8415C22.5496 19.1821 22.4442 19.5651 22.4356 19.9564C22.4142 20.3052 22.2796 20.6373 22.0524 20.9025C21.8251 21.1677 21.5176 21.3513 21.1765 21.4255C20.8005 21.5066 20.4496 21.6773 20.1535 21.923C19.8575 22.1688 19.625 22.4824 19.4758 22.8373C19.3315 23.1859 19.0736 23.4755 18.7441 23.659C18.4146 23.8425 18.0328 23.9091 17.6607 23.848C17.3376 23.7969 17.007 23.8229 16.6959 23.9238C16.3847 24.0248 16.1018 24.1979 15.8701 24.4291C15.6349 24.6971 15.3266 24.8905 14.9831 24.9858C14.6397 25.081 14.2759 25.0738 13.9364 24.9652C13.537 24.8543 13.1245 24.7979 12.71 24.7974C12.2408 24.8005 11.7739 24.8624 11.3201 24.9815C11.1574 25.0251 10.9897 25.0471 10.8213 25.047C10.5705 25.0452 10.3229 24.9911 10.0942 24.8882C9.86544 24.7854 9.66059 24.636 9.49267 24.4496C9.27164 24.2159 8.99749 24.0392 8.69355 23.9345C8.38962 23.8298 8.0649 23.8001 7.74704 23.848C7.35678 23.9148 6.95542 23.8487 6.6071 23.6603C6.25879 23.4719 5.98364 23.172 5.82563 22.8086C5.67374 22.4625 5.44305 22.1568 5.15201 21.9159C4.86096 21.6751 4.51764 21.5057 4.1495 21.4214C3.78604 21.3413 3.46075 21.1395 3.22736 20.8494C2.99396 20.5592 2.86643 20.198 2.86583 19.8255C2.85328 19.4873 2.76167 19.1567 2.59838 18.8604C2.43508 18.564 2.20464 18.3102 1.92557 18.1191C1.57267 17.9054 1.30278 17.578 1.16016 17.1907C1.01755 16.8033 1.01067 16.3789 1.14065 15.9871C1.23214 15.652 1.24279 15.2999 1.17172 14.9598C1.10064 14.6197 0.949875 14.3014 0.731836 14.0311C0.562668 13.8275 0.452305 13.5815 0.412676 13.3197C0.373047 13.0579 0.40566 12.7903 0.506989 12.5457C0.942828 11.5624 1.13765 10.4891 1.07524 9.41522C1.05827 9.13725 1.117 8.85988 1.24515 8.61269C1.37331 8.36551 1.56608 8.15777 1.80292 8.01164C2.11911 7.8035 2.38144 7.52323 2.56835 7.19387C2.75526 6.8645 2.86142 6.49543 2.8781 6.117C2.88459 5.7577 3.01521 5.41175 3.24774 5.13796C3.48028 4.86417 3.80036 4.67945 4.15359 4.6152C4.53014 4.53403 4.88147 4.36286 5.17761 4.11632C5.47375 3.86977 5.7059 3.55516 5.85424 3.19934C5.97818 2.86577 6.20916 2.58278 6.51099 2.39469C6.81283 2.2066 7.16846 2.12404 7.52219 2.15995C7.89076 2.228 8.27044 2.20343 8.62719 2.08845C8.98394 1.97346 9.3066 1.77166 9.56625 1.50112C9.80943 1.21582 10.1431 1.02275 10.5115 0.95422C10.8798 0.885691 11.2605 0.945857 11.5899 1.12465C11.9237 1.28927 12.2909 1.37488 12.663 1.37488C13.0351 1.37488 13.4023 1.28927 13.7361 1.12465C14.0696 0.937632 14.4589 0.876088 14.8337 0.951127C15.2085 1.02616 15.5442 1.23284 15.7802 1.53386C16.0012 1.77498 16.276 1.96035 16.5822 2.07485C16.8884 2.18935 17.2174 2.22973 17.5422 2.19269C17.9669 2.1175 18.4046 2.19655 18.7763 2.4156C19.148 2.63465 19.4294 2.97932 19.5699 3.38758C19.6938 3.68356 19.8877 3.94503 20.1347 4.14958C20.3818 4.35413 20.6747 4.49565 20.9884 4.56201C21.3986 4.62808 21.772 4.8381 22.0416 5.15449C22.3112 5.47088 22.4596 5.87299 22.4602 6.28887C22.5328 6.93179 22.856 7.52002 23.3596 7.9257C23.6411 8.21963 23.8969 8.53725 24.124 8.87507L24.2794 9.09604C24.3165 9.16067 24.3388 9.23281 24.3444 9.30716C24.3501 9.38151 24.339 9.45619 24.3121 9.52571C24.1558 9.9163 24.0943 10.3384 24.1327 10.7574C24.1711 11.1764 24.3082 11.5803 24.5328 11.9359C24.7339 12.2673 24.8368 12.6489 24.8296 13.0365C24.8224 13.4241 24.7053 13.8017 24.492 14.1252Z" fill="#003BB3"/>
<path d="M9.01855 14.3667L9.5541 13.8593L10.7356 15.0869L14.3372 10.0455L14.9586 10.4956L10.8705 16.2245L9.01855 14.3667Z" fill="white"/>
<path d="M12.6037 22.0228H12.4034V21.1389H12.9634L12.992 22.0228H12.5832H12.6037ZM12.5546 21.8755H12.849L12.8285 21.2903H12.5628L12.5546 21.8755ZM11.7574 21.986H11.6838L11.2342 21.9287H11.1606L11.2955 21.053H11.3691L11.7779 21.1062H11.8515L11.7574 21.986ZM11.3486 21.7814C11.4426 21.7814 11.5408 21.81 11.6389 21.8182L11.7002 21.2371L11.4345 21.2044L11.3486 21.7814ZM13.6666 21.9655L13.5562 21.0857H13.6339L14.0427 21.0244H14.1163L14.2716 21.896H14.198C14.0509 21.9205 13.8996 21.9451 13.7524 21.9614L13.6666 21.9655ZM13.7238 21.2167L13.781 21.8019L14.0713 21.7568L13.9732 21.1799L13.7238 21.2167ZM10.5228 21.8019H10.4492C10.3062 21.765 10.159 21.7241 10.0159 21.6791H9.94231L10.1958 20.832H10.2694L10.6782 20.9425H10.7518L10.5228 21.8019ZM10.114 21.54L10.3961 21.6218L10.5392 21.053L10.298 20.9834L10.114 21.54ZM14.8644 21.7528L14.6314 20.8975H14.705L15.1138 20.7788L15.1874 20.7543L15.4613 21.5973L15.3918 21.6218C15.2487 21.6668 15.1015 21.7118 14.9543 21.7487L14.8644 21.7528ZM14.8317 20.9834L14.987 21.5481L15.2691 21.4622L15.0852 20.9098L14.8317 20.9834ZM9.32909 21.3926H9.25959L8.85078 21.2126L8.78128 21.1799L9.1533 20.3614L9.21871 20.3901C9.34545 20.4515 9.47218 20.5047 9.59482 20.5538L9.66432 20.5824L9.32909 21.3926ZM8.99795 21.0939L9.26777 21.2126L9.48444 20.6683L9.2228 20.5742L8.99795 21.0939ZM16.0827 21.3313L15.7352 20.5128L15.8047 20.4842L16.1726 20.3164L16.2421 20.2837L16.6305 21.0776L16.5651 21.1103C16.4301 21.1758 16.2911 21.2412 16.1562 21.2985L16.0827 21.3313ZM15.9314 20.5988L16.1644 21.1348L16.4301 21.0121L16.1726 20.4883L15.9314 20.5988ZM8.22121 20.8689L8.1558 20.832C8.02498 20.7584 7.89825 20.6765 7.77152 20.5947L7.70611 20.5538L8.18033 19.8131L8.24574 19.854L8.59323 20.0668L8.65864 20.1036L8.22121 20.8689ZM7.9146 20.5088L8.16807 20.6643L8.43788 20.165L8.20895 20.0259L7.9146 20.5088ZM17.1742 20.7706L16.7163 20.0136L16.7817 19.9727L17.1251 19.7558L17.1864 19.7108L17.6811 20.4433L17.6198 20.4883L17.2396 20.7297L17.1742 20.7706ZM16.9248 20.0627L17.2314 20.5742C17.3132 20.5251 17.3949 20.4719 17.4767 20.4146L17.1497 19.9318L16.9248 20.0627ZM7.1583 20.165L7.09698 20.1159C6.97843 20.0259 6.86396 19.9277 6.74949 19.8295L6.69226 19.7804L7.26868 19.1093L7.32592 19.1584C7.42812 19.2484 7.53441 19.3343 7.6407 19.4203L7.70202 19.4653L7.1583 20.165ZM6.90484 19.7558C6.97843 19.8213 7.0561 19.8827 7.13378 19.944L7.48944 19.4816L7.28503 19.3139L6.90484 19.7558ZM18.2044 20.0341L17.6484 19.3466H17.7056C17.8119 19.2607 17.9141 19.1706 18.0163 19.0806L18.0695 19.0274L18.6623 19.6862L18.6091 19.7354C18.4946 19.839 18.3802 19.9372 18.2657 20.03L18.2044 20.0341ZM17.8569 19.3671L18.2289 19.8213L18.4497 19.629L18.0613 19.1952C17.9918 19.277 17.9264 19.3466 17.8569 19.3916V19.3671ZM6.22213 19.3466L6.16898 19.2934C6.06269 19.187 5.96049 19.0724 5.86237 18.9619L5.81331 18.9047L6.47559 18.3195L6.52465 18.3768C6.61458 18.4791 6.70861 18.5814 6.80264 18.6796L6.85578 18.7328L6.22213 19.3466ZM6.0259 18.9374L6.22213 19.1543L6.63094 18.7451L6.46332 18.5282L6.0259 18.9374ZM19.1079 19.2279L18.4619 18.6223L18.511 18.5691C18.6037 18.4709 18.6936 18.3686 18.7808 18.2622L18.8299 18.2049L19.5085 18.7737L19.4594 18.831C19.3613 18.9497 19.2591 19.0602 19.161 19.1706L19.1079 19.2279ZM18.6704 18.6141L19.0792 19.0233L19.2755 18.8024L18.8258 18.4259C18.8094 18.4668 18.7481 18.5282 18.6868 18.5977L18.6704 18.6141ZM5.39224 18.4177L5.34727 18.3604C5.25733 18.2376 5.17148 18.1108 5.08972 17.988L5.04884 17.9226L5.7847 17.4397L5.82967 17.5011C5.89916 17.6116 5.97684 17.7261 6.0586 17.8366L6.10357 17.898L5.39224 18.4177ZM5.25733 17.9676C5.31048 18.0494 5.36771 18.1313 5.42494 18.209L5.89508 17.8653L5.74382 17.6443L5.25733 17.9676ZM19.901 18.2581L19.1774 17.7507L19.2182 17.6893C19.2959 17.5788 19.3736 17.4642 19.4431 17.3497L19.484 17.2883L20.2321 17.7548L20.1953 17.8203C20.1135 17.9471 20.0318 18.074 19.9459 18.1967L19.901 18.2581ZM19.4022 17.7098L19.8805 18.0453C19.9377 17.9635 19.9909 17.8816 20.044 17.7998L19.5494 17.4888L19.4022 17.7098ZM4.73405 17.3619L4.69726 17.3006C4.62776 17.1696 4.55826 17.0346 4.49285 16.8913L4.46015 16.8259L5.27777 16.4453L5.31048 16.5149C5.36771 16.6335 5.42903 16.7563 5.49444 16.8791L5.52715 16.9445L4.73405 17.3619ZM4.66047 16.8913L4.79537 17.1532L5.31865 16.8913L5.19601 16.654L4.66047 16.8913ZM20.5673 17.1819L19.7824 16.7727L19.8151 16.7072C19.8764 16.5844 19.9337 16.4617 19.9909 16.3389L20.0195 16.2694L20.8371 16.6295L20.8044 16.699C20.7472 16.8341 20.6818 16.9732 20.6123 17.1082L20.5673 17.1819ZM19.9827 16.7154L20.5019 16.9814C20.5469 16.8913 20.5878 16.8013 20.6286 16.7154L20.0972 16.4821C20.0604 16.5476 20.0359 16.6295 19.9827 16.7072V16.7154ZM4.21077 16.2121L4.18624 16.1425C4.13174 15.9979 4.08268 15.8547 4.03907 15.7128V15.6433L4.88122 15.3814L4.90575 15.4509C4.94663 15.5819 4.98752 15.7128 5.03657 15.8601L5.0611 15.9297L4.21077 16.2121ZM4.21077 15.7415C4.23939 15.8356 4.2721 15.9297 4.3048 16.0197L4.85261 15.8192L4.76676 15.5696L4.21077 15.7415ZM21.0702 16.0238L20.2321 15.7374L20.2566 15.6678C20.3016 15.541 20.3425 15.41 20.3793 15.2791L20.3997 15.2054L21.25 15.4509L21.2296 15.5205C21.1887 15.6678 21.1437 15.811 21.0947 15.9543L21.0702 16.0238ZM20.4201 15.6637L20.972 15.856C21.0007 15.7619 21.0334 15.6678 21.0579 15.5737L20.4978 15.4141C20.4733 15.4755 20.4447 15.5614 20.4201 15.6637ZM3.85511 15.0131V14.9394C3.8224 14.7962 3.79379 14.6448 3.76926 14.4975V14.4238L4.64411 14.2806V14.3543C4.64411 14.4893 4.68908 14.6243 4.7177 14.7635V14.8371L3.85511 15.0131ZM3.91643 14.5466C3.91643 14.6448 3.94913 14.7389 3.96957 14.8371L4.54191 14.7144C4.54191 14.6284 4.50512 14.5384 4.49285 14.4525L3.91643 14.5466ZM21.3972 14.8167L20.5264 14.653V14.5793C20.551 14.4484 20.5714 14.3133 20.5918 14.1701V14.0964L21.4708 14.2192V14.2929C21.4708 14.4402 21.4258 14.5916 21.3972 14.7389V14.8167ZM20.7022 14.5343L21.2746 14.6407C21.2746 14.5466 21.3114 14.4484 21.3236 14.3502L20.7472 14.2724C20.7349 14.3583 20.7186 14.4361 20.7022 14.5343ZM3.68341 13.7773V13.7036C3.68341 13.5522 3.68341 13.4008 3.68341 13.2494V13.1757L4.56644 13.1553V13.233C4.56644 13.3681 4.56644 13.5031 4.56644 13.6422V13.72L3.68341 13.7773ZM3.81014 13.323V13.6177L4.39474 13.5768C4.39474 13.4867 4.39474 13.3967 4.39474 13.3108L3.81014 13.323ZM21.5689 13.5768L20.6859 13.5317V13.4581C20.6859 13.323 20.6859 13.188 20.6859 13.0489V12.9261H21.5689V13.053C21.5689 13.2044 21.5689 13.3599 21.5689 13.5072V13.5768ZM20.8453 13.3926L21.4258 13.4213C21.4258 13.3067 21.4258 13.188 21.4258 13.0734H20.8535C20.8535 13.1798 20.8535 13.2862 20.829 13.3926H20.8453ZM4.55009 12.5742L3.67114 12.5169V12.4392C3.67114 12.2918 3.69567 12.1404 3.71202 11.989V11.9154L4.59097 12.0177V12.0913C4.59097 12.2264 4.56235 12.3655 4.55418 12.5005L4.55009 12.5742ZM3.81423 12.39L4.39474 12.431L4.41927 12.165L3.83876 12.0995L3.81423 12.39ZM20.6573 12.3614V12.2877C20.6573 12.1527 20.6286 12.0136 20.6082 11.8785V11.8008L21.4831 11.6739V11.7476C21.5076 11.899 21.5239 12.0504 21.5362 12.1977V12.2755L20.6573 12.3614ZM20.7595 11.9317C20.7595 12.0218 20.784 12.1077 20.7922 12.1977L21.3727 12.1404C21.3727 12.0463 21.3522 11.9481 21.3359 11.8499L20.7595 11.9317ZM4.67682 11.4693L3.81014 11.2852V11.2115C3.84284 11.0683 3.87555 10.9169 3.91234 10.7737L3.93278 10.7L4.7872 10.9251V10.9946C4.7504 11.1256 4.72179 11.2606 4.69317 11.4039L4.67682 11.4693ZM3.99002 11.1624L4.56235 11.2811C4.56235 11.1952 4.59914 11.1092 4.61958 11.0233L4.05543 10.876C4.0309 10.9783 4.01046 11.0765 3.99002 11.1624ZM20.4815 11.2361V11.1624C20.4529 11.0315 20.4161 10.8964 20.3793 10.7532L20.3547 10.6836L21.2051 10.434V10.5077C21.25 10.655 21.2868 10.8023 21.3236 10.9455V11.0192L20.4815 11.2361ZM20.5264 10.7982C20.551 10.8842 20.5714 10.9701 20.5959 11.0519L21.1601 10.9169C21.141 10.8241 21.1165 10.73 21.0865 10.6345L20.5264 10.7982ZM4.97116 10.389L4.15354 10.0862L4.17807 10.0166C4.23121 9.87751 4.28436 9.73428 4.34159 9.60743L4.3743 9.53786L5.19192 9.87751L5.1633 9.94707C5.11016 10.0739 5.0611 10.2008 5.01613 10.3317L4.97116 10.389ZM4.33342 9.97981L4.88122 10.1803L4.97934 9.9307L4.43971 9.70564C4.40292 9.80385 4.36612 9.89797 4.33342 9.98799V9.97981ZM20.1544 10.1558L20.1299 10.0862C20.0808 9.95935 20.0277 9.83249 19.9705 9.70973L19.9377 9.64426L20.7554 9.27597L20.7881 9.34553C20.8494 9.48467 20.9107 9.6238 20.9639 9.75474L20.9925 9.82431L20.1544 10.1558ZM20.1544 9.71792C20.1912 9.79976 20.2239 9.87751 20.2566 9.95935L20.8003 9.74656C20.7635 9.65653 20.7268 9.56651 20.6859 9.47648L20.1544 9.71792ZM5.43721 9.33735L4.65638 8.92814L4.69317 8.86267C4.76267 8.72763 4.84034 8.59668 4.91393 8.45346L4.95481 8.38799L5.71111 8.83812L5.67432 8.90359C5.60482 9.02226 5.53941 9.14093 5.474 9.2596L5.43721 9.33735ZM4.86078 8.85858L5.37589 9.13275L5.50671 8.8995L5.00387 8.60077L4.86078 8.85858ZM19.7006 9.13275L19.6271 9.07546C19.5616 8.96088 19.4921 8.84221 19.4186 8.72763L19.3777 8.66216L20.1258 8.19157L20.1667 8.25295C20.2484 8.3798 20.3261 8.51075 20.3997 8.6417L20.4447 8.70717L19.7006 9.13275ZM19.623 8.72354C19.6679 8.7972 19.717 8.87495 19.7579 8.9486L20.2689 8.66216L20.1176 8.41254L19.623 8.72354ZM6.00546 8.3798L5.28595 7.86011L5.33092 7.79873C5.42086 7.68006 5.51079 7.55729 5.60482 7.43862L5.65388 7.38133L6.34477 7.93376L6.29571 7.99515C6.20986 8.09745 6.1281 8.20793 6.05042 8.31842L6.00546 8.3798ZM5.49853 7.82737L5.97275 8.17111C6.02181 8.09745 6.07904 8.02788 6.13219 7.95832L5.67841 7.59412L5.49853 7.82737ZM19.0711 8.19566L19.0261 8.13837C18.9443 8.03197 18.8544 7.92149 18.7685 7.81919L18.7195 7.7619L19.394 7.189L19.4431 7.24629C19.5412 7.36087 19.6352 7.47954 19.7252 7.59821L19.7701 7.65959L19.0711 8.19566ZM18.9321 7.78645L19.0956 7.99515L19.5616 7.63913L19.3777 7.40998L18.9321 7.78645ZM6.71679 7.51637L6.07904 6.90256L6.13219 6.84936C6.23848 6.73887 6.34477 6.63248 6.45515 6.53018L6.50829 6.47698L7.11333 7.11944L7.06019 7.17264L6.76993 7.45908L6.71679 7.51637ZM6.30798 6.89847L6.71679 7.30767C6.77811 7.2422 6.84352 7.18082 6.90484 7.11944L6.49603 6.71023L6.30798 6.89847ZM18.3475 7.35269L18.2943 7.29949C18.2003 7.20537 18.1022 7.11125 17.9959 7.02123L17.9427 6.96803L18.5314 6.30921L18.5846 6.35831C18.699 6.46061 18.8094 6.56291 18.9157 6.66931L18.9689 6.72251L18.3475 7.35269ZM18.1553 6.94348L18.3475 7.12353L18.7563 6.71432L18.5437 6.51381L18.1553 6.94348ZM7.56303 6.73069L6.99887 6.04731L7.0561 5.99821C7.17466 5.90818 7.2973 5.81406 7.41994 5.72813L7.48127 5.68312L7.99228 6.40741L7.93096 6.44834L7.60391 6.69386L7.56303 6.73069ZM7.2278 6.06368L7.58756 6.52199L7.80014 6.3624L7.46082 5.88772L7.2278 6.06368ZM17.5012 6.59156L17.4399 6.54655C17.3336 6.4688 17.2192 6.38695 17.1047 6.3133L17.0434 6.27238L17.5339 5.5358L17.5993 5.57672C17.722 5.65856 17.8446 5.74859 17.9673 5.83861L18.0286 5.88363L17.5012 6.59156ZM17.2355 6.25192C17.3091 6.30102 17.3827 6.35013 17.4522 6.40332L17.7997 5.93682C17.722 5.87544 17.6402 5.81815 17.5585 5.76496L17.2355 6.25192ZM8.47059 6.10869L8.02498 5.34347L8.09039 5.30664C8.22121 5.23299 8.35203 5.15933 8.49921 5.08976L8.56462 5.05293L8.97343 5.83861L8.90393 5.87544L8.54826 6.07186L8.47059 6.10869ZM8.22939 5.40076L8.52373 5.90409L8.75676 5.77723L8.48694 5.25754L8.22939 5.40076ZM16.5405 5.99411L16.4751 5.96138C16.3566 5.8959 16.2339 5.83043 16.1113 5.77314L16.0459 5.7404L16.4301 4.92199L16.4956 4.95472C16.6346 5.0202 16.7708 5.08976 16.9044 5.16342L16.9698 5.20025L16.5405 5.99411ZM16.2462 5.67084C16.3239 5.71176 16.4015 5.74859 16.4792 5.7936L16.7654 5.26572L16.5037 5.13068L16.2462 5.67084ZM9.47626 5.60127L9.14104 4.78286L9.21054 4.75421C9.34953 4.69692 9.48853 4.64372 9.61935 4.59462L9.69293 4.56597L9.98319 5.40485L9.91369 5.42941L9.5335 5.57263L9.47626 5.60127ZM9.33727 4.8647L9.55803 5.40485L9.8074 5.31073L9.61117 4.7583L9.33727 4.8647ZM15.5389 5.50306L15.4654 5.47851C15.3386 5.42941 15.2119 5.38439 15.0811 5.34347L15.0075 5.31892L15.2773 4.47595L15.3509 4.5005C15.4953 4.54415 15.6316 4.59326 15.7597 4.64782L15.8292 4.67646L15.5389 5.50306ZM15.1996 5.22071L15.449 5.31073L15.6534 4.76239L15.3754 4.66828L15.1996 5.22071ZM10.5596 5.22071L10.3266 4.36955L10.3961 4.34909L10.8376 4.25088H10.9112L11.087 5.11841H11.0134C10.8785 5.14296 10.7477 5.1757 10.6046 5.20843L10.5596 5.22071ZM10.5228 4.47186L10.6332 5.04475L10.8908 4.98746L10.7804 4.41457C10.6986 4.43094 10.6046 4.45549 10.5065 4.47595L10.5228 4.47186ZM14.4597 5.16751H14.3861C14.2553 5.13887 14.1204 5.11022 13.9773 5.08976H13.9037L14.0468 4.20587H14.1204L14.5619 4.2959H14.6355L14.4597 5.16751ZM14.0877 4.93835L14.3452 4.98746L14.4719 4.41866L14.1858 4.36137L14.0877 4.93835ZM11.6471 5.02429L11.553 4.14449H11.6266C11.7765 4.12812 11.9278 4.11584 12.0804 4.10766H12.154L12.203 4.99155H12.1294L11.7206 5.02429H11.6471ZM11.7206 4.27953L11.782 4.86061L12.0477 4.83605L12.0109 4.24679C11.9128 4.25088 11.8147 4.25907 11.7206 4.27134V4.27953ZM13.3314 4.99974H13.2578C13.1229 4.99974 12.988 4.97928 12.849 4.97518H12.7754L12.7999 4.09129H12.8776C13.0247 4.09129 13.1801 4.09129 13.3273 4.11584H13.4009L13.3314 4.99974ZM12.9225 4.82378H13.1842L13.2332 4.2427H12.9389L12.9225 4.82378Z" fill="white"/>
</svg>
